<svg width="100%" height="200" viewBox="0 0 1440 200" fill="none" xmlns="http://www.w3.org/2000/svg">
  <path fill-rule="evenodd" clip-rule="evenodd" d="M0 31.1111L60 35.5556C120 40 240 48.8889 360 53.3333C480 57.7778 600 57.7778 720 66.6667C840 75.5556 960 93.3333 1080 97.7778C1200 102.222 1320 93.3333 1380 88.8889L1440 84.4444V200H1380C1320 200 1200 200 1080 200C960 200 840 200 720 200C600 200 480 200 360 200C240 200 120 200 60 200H0V31.1111Z" fill="url(#paint0_linear)"/>
  <defs>
    <linearGradient id="paint0_linear" x1="720" y1="31.1111" x2="720" y2="200" gradientUnits="userSpaceOnUse">
      <stop stop-color="#4F7942" stop-opacity="0.2"/>
      <stop offset="1" stop-color="#4F7942" stop-opacity="0"/>
    </linearGradient>
  </defs>
</svg> 