<svg xmlns="http://www.w3.org/2000/svg" width="200" height="50" viewBox="0 0 200 50">
  <style>
    .logo-text { font-family: Arial, sans-serif; font-weight: bold; }
    .primary { fill: #4F7942; }
    .secondary { fill: #6b9a59; }
  </style>
  
  <!-- Document Icon -->
  <g transform="translate(10, 10)">
    <path class="primary" d="M24,4H8C6.9,4,6,4.9,6,6v28c0,1.1,0.9,2,2,2h16c1.1,0,2-0.9,2-2V6C26,4.9,25.1,4,24,4z" />
    <path class="secondary" d="M24,4H8C6.9,4,6,4.9,6,6v28c0,1.1,0.9,2,2,2h16c1.1,0,2-0.9,2-2V6C26,4.9,25.1,4,24,4z M22,32H10V8h12V32z" />
    <rect x="12" y="12" width="8" height="2" fill="#ffffff" />
    <rect x="12" y="16" width="8" height="2" fill="#ffffff" />
    <rect x="12" y="20" width="8" height="2" fill="#ffffff" />
    <rect x="12" y="24" width="8" height="2" fill="#ffffff" />
  </g>
  
  <!-- Logo Text -->
  <text x="50" y="30" class="logo-text primary" font-size="18">DocClassifier</text>
</svg> 